:SAMPLES-PER-SECOND 30
:FULLY-SPECIFIED
:DEGREES
38
root  72.2627 37.4207 0.163434 -121.363 -85.7445 119.749
RightUpLeg  -27.2705 -8.31216 -4.36124
RightLeg  5.44544 -9.67925 3.52776
RightFoot  4.60963 -0.257833 2.10463
RightToes  -1.33073e-015 0 -3.6325e-017
Spine  19.7912 -1.4062 2.5495
Spine1  9.2643 -1.44236 0.779023
HEad  3.16878 1.31901 -4.84377
LeftShoulder1  8.29613 -11.6877 -47.6577
LeftArm  -13.9406 22.4525 -28.7022
LeftForeArm  34.2567 -12.5212 -3.5522
LeftHand  -0.244104 0.0205437 5.32207
RightShoulder  4.13334 7.22419 32.5852
RightArm  -1.85173 -22.8624 40.5127
RightForeArm  7.55396 18.3541 5.18713
RightHand  -1.02111 1.15006 -18.1116
LeftUpLeg  13.0844 13.3037 -2.89556
LeftLeg  17.9252 9.9851 2.33267
LeftFoot  -27.4872 -0.417747 -4.10275
LeftToes  -7.82198e-011 2.46994e-011 -7.94165e-012
39
root  71.1442 37.1638 0.0873089 -117.041 -87.1784 116.453
RightUpLeg  -29.761 -12.4023 -1.76673
RightLeg  9.60406 -6.76897 3.51321
RightFoot  10.7013 0.0392589 0.151962
RightToes  -1.33073e-015 0 -3.6325e-017
Spine  21.2713 -2.3285 5.82302
Spine1  7.8951 -1.71313 0.379637
HEad  1.93413 0.551225 -5.36514
LeftShoulder1  8.40315 -11.911 -47.5726
LeftArm  -13.8212 20.7004 -27.3166
LeftForeArm  32.6365 -15.8496 -3.31066
LeftHand  -0.244104 0.0205437 5.32207
RightShoulder  4.23702 7.49467 32.5802
RightArm  -3.06059 -20.934 38.7992
RightForeArm  4.24544 17.889 5.40437
RightHand  -1.45793 2.79064 -20.7219
LeftUpLeg  12.3446 13.9568 -1.40247
LeftLeg  21.0538 7.91637 3.69968
LeftFoot  -28.5312 -0.808964 -6.43278
LeftToes  -7.82198e-011 2.46994e-011 -7.94165e-012
40
root  70.1303 36.8818 0.0145124 -138.797 -88.1323 139.122
RightUpLeg  -33.6747 -18.8666 3.84609
RightLeg  15.3255 0.640198 2.70287
RightFoot  13.2619 0.371393 -1.29863
RightToes  -1.33073e-015 0 -3.6325e-017
Spine  23.8721 -3.10337 9.70823
Spine1  6.2627 -1.22676 -0.928374
HEad  -0.415811 -0.409662 -5.70292
LeftShoulder1  8.65581 -12.3201 -47.74
LeftArm  -14.0209 18.2757 -25.8221
LeftForeArm  31.9336 -20.215 -3.14528
LeftHand  -0.244104 0.0205437 5.32207
RightShoulder  4.45706 8.02101 32.7312
RightArm  -4.06024 -18.3377 37.0625
RightForeArm  1.9268 17.7915 5.4801
RightHand  -1.88951 4.49363 -22.2271
LeftUpLeg  9.54193 12.9593 0.132886
LeftLeg  28.2245 7.5833 4.73343
LeftFoot  -28.1418 -1.5334 -11.6529
LeftToes  -7.82198e-011 2.46994e-011 -7.94165e-012
41
root  69.2735 36.6616 -0.134553 177.222 -88.4736 -176.285
RightUpLeg  -36.9806 -21.9243 8.39549
RightLeg  20.8278 5.04197 1.8296
RightFoot  11.7417 0.84084 -3.74844
RightToes  -1.33073e-015 0 -3.6325e-017
Spine  27.3071 -3.67799 12.6611
Spine1  5.20405 -0.637715 -1.56735
HEad  -3.85162 -1.53866 -5.67991
LeftShoulder1  9.01501 -13.0042 -47.6659
LeftArm  -15.1234 14.7851 -24.6942
LeftForeArm  32.3661 -24.6381 -3.53571
LeftHand  -0.244104 0.0205437 5.32207
RightShoulder  4.69221 8.68476 32.5586
RightArm  -4.89046 -14.7201 35.7754
RightForeArm  0.485268 17.8784 5.48237
RightHand  -2.16323 5.64826 -22.7645
LeftUpLeg  4.40204 13.2829 2.14758
LeftLeg  39.2976 7.0132 6.55813
LeftFoot  -22.8203 -1.36911 -14.7369
LeftToes  -7.82198e-011 2.46994e-011 -7.94165e-012
42
root  68.5918 36.5053 -0.376273 124.293 -88.6884 -123.047
RightUpLeg  -38.1663 -20.9502 8.9668
RightLeg  25.0256 3.21929 1.38873
RightFoot  9.03056 1.22824 -6.46856
RightToes  -1.33073e-015 0 -3.6325e-017
Spine  30.8571 -4.23562 14.1321
Spine1  4.9855 -0.564482 -0.798074
HEad  -7.65962 -2.88485 -5.19134
LeftShoulder1  9.22294 -13.7722 -46.5783
LeftArm  -16.019 9.9414 -24.6327
LeftForeArm  32.6317 -27.973 -4.27074
LeftHand  -0.244104 0.0205437 5.32207
RightShoulder  4.74607 9.13165 31.6163
RightArm  -5.45652 -9.746 35.3753
RightForeArm  -0.117101 17.4396 5.60397
RightHand  -2.40481 6.55202 -23.3691
LeftUpLeg  -3.01411 13.1825 3.63436
LeftLeg  52.2054 6.80912 9.79756
LeftFoot  -12.6793 -0.111104 -10.9536
LeftToes  -7.82198e-011 2.46994e-011 -7.94165e-012
43
root  68.0697 36.3413 -0.629497 58.2822 -88.0469 -56.7825
RightUpLeg  -39.3579 -21.5484 9.60325
RightLeg  28.4425 1.97425 0.920839
RightFoot  7.03193 1.30972 -7.76743
RightToes  -1.33073e-015 0 -3.6325e-017
Spine  34.0003 -4.95488 15.1771
Spine1  5.20709 -0.865013 0.36608
HEad  -11.1859 -4.41961 -4.35432
LeftShoulder1  9.21532 -14.5405 -44.4845
LeftArm  -15.8334 3.78416 -25.4536
LeftForeArm  32.4496 -29.7658 -4.68232
LeftHand  -0.244104 0.0205437 5.32207
RightShoulder  4.60457 9.26709 30.0916
RightArm  -6.19729 -3.53278 35.5946
RightForeArm  0.901158 15.8175 5.9425
RightHand  -2.73912 7.58398 -24.4623
LeftUpLeg  -11.4835 12.2836 4.22919
LeftLeg  63.5049 5.25008 11.8749
LeftFoot  -4.2383 0.295104 -3.83641
LeftToes  -7.82198e-011 2.46994e-011 -7.94165e-012
44
root  67.6086 36.2136 -0.848298 38.5495 -86.9699 -36.5305
RightUpLeg  -40.7437 -22.5383 10.0077
RightLeg  31.2941 1.49545 0.727891
RightFoot  5.35659 1.18093 -7.77476
RightToes  -1.33073e-015 0 -3.6325e-017
Spine  36.7599 -5.5968 16.1096
Spine1  5.48164 -1.0301 0.746969
HEad  -14.352 -5.97072 -3.54158
LeftShoulder1  9.16498 -15.3408 -42.2358
LeftArm  -15.4186 -3.44324 -26.1548
LeftForeArm  33.1023 -30.1109 -4.72727
LeftHand  -0.244104 0.0205437 5.32207
RightShoulder  4.43327 9.36654 28.4507
RightArm  -7.88318 3.35291 35.7435
RightForeArm  3.8755 12.9553 6.35508
RightHand  -3.10332 8.62078 -25.6222
LeftUpLeg  -19.7858 11.7235 3.85841
LeftLeg  71.5303 3.01733 10.921
LeftFoot  -2.28156 0.057788 -0.421641
LeftToes  -7.82198e-011 2.46994e-011 -7.94165e-012
45
root  67.1296 36.1724 -1.05343 31.5104 -86.4659 -28.6565
RightUpLeg  -41.9295 -22.9547 10.2634
RightLeg  33.3656 1.21879 0.599691
RightFoot  3.49666 1.04681 -7.84384
RightToes  -1.33073e-015 0 -3.6325e-017
Spine  39.4233 -5.96107 16.6706
Spine1  5.52484 -0.887157 0.661645
HEad  -17.3547 -7.32721 -3.10621
LeftShoulder1  9.22334 -16.1243 -40.6902
LeftArm  -15.3354 -11.5245 -25.9517
LeftForeArm  34.3027 -29.1519 -4.44742
LeftHand  -0.244104 0.0205437 5.32207
RightShoulder  4.31816 9.66059 26.7555
RightArm  -10.0969 10.4366 35.5159
RightForeArm  7.32799 9.28765 6.44099
RightHand  -3.37577 9.36288 -26.4347
LeftUpLeg  -27.4434 12.041 3.00799
LeftLeg  75.9216 1.4639 8.08841
LeftFoot  -4.34681 0.0840252 -1.01514
LeftToes  -7.82198e-011 2.46994e-011 -7.94165e-012
46
root  66.666 36.162 -1.28575 27.9362 -86.353 -24.0857
RightUpLeg  -42.982 -22.9038 10.6289
RightLeg  34.84 0.922381 0.419798
RightFoot  1.85489 0.973986 -8.28756
RightToes  -1.33073e-015 0 -3.6325e-017
Spine  42.4047 -5.92937 16.6389
Spine1  5.23309 -0.56186 0.947563
HEad  -20.2507 -8.46204 -2.97969
LeftShoulder1  9.43376 -16.8559 -40.0655
LeftArm  -15.3162 -20.222 -24.7414
LeftForeArm  34.5267 -26.9628 -3.94594
LeftHand  -0.244104 0.0205437 5.32207
RightShoulder  4.21814 10.0621 24.9726
RightArm  -11.5238 17.6547 34.8643
RightForeArm  9.38219 5.23472 6.02675
RightHand  -3.46964 9.55612 -26.7996
LeftUpLeg  -34.4524 12.9365 1.89407
LeftLeg  76.8438 0.868709 5.7797
LeftFoot  -6.45199 0.151602 -2.60048
LeftToes  -7.82198e-011 2.46994e-011 -7.94165e-012
47
root  66.2458 36.1817 -1.52899 22.0282 -86.4353 -17.1469
RightUpLeg  -43.9418 -22.8675 10.8323
RightLeg  35.8658 0.781441 0.332636
RightFoot  0.715472 0.878809 -8.24814
RightToes  -1.33073e-015 0 -3.6325e-017
Spine  45.6521 -5.6851 16.1116
Spine1  4.79659 -0.126952 1.29732
HEad  -23.023 -9.5107 -2.74343
LeftShoulder1  9.74422 -17.6608 -39.7805
LeftArm  -15.1276 -29.1022 -22.9745
LeftForeArm  33.256 -23.8451 -3.4306
LeftHand  -0.244104 0.0205437 5.32207
RightShoulder  4.11463 10.4043 23.3838
RightArm  -12.8879 24.9384 33.4788
RightForeArm  10.8573 1.04468 5.48277
RightHand  -3.36963 9.18568 -26.6891
LeftUpLeg  -40.5988 14.0398 0.18511
LeftLeg  74.487 0.881097 4.78089
LeftFoot  -7.67087 0.150254 -3.23948
LeftToes  -7.82198e-011 2.46994e-011 -7.94165e-012
48
root  65.8733 36.1793 -1.72726 14.8184 -86.4974 -8.8559
RightUpLeg  -45.0691 -22.8484 10.8564
RightLeg  36.9843 0.758186 0.334494
RightFoot  -0.43449 0.721957 -7.57023
RightToes  -1.33073e-015 0 -3.6325e-017
Spine  48.7564 -5.68011 15.7699
Spine1  4.593 0.363427 0.913824
HEad  -25.7594 -10.4593 -2.17112
LeftShoulder1  9.92501 -18.5959 -38.6975
LeftArm  -16.3502 -37.5536 -21.3153
LeftForeArm  32.5233 -20.347 -3.38915
LeftHand  -0.244104 0.0205437 5.32207
RightShoulder  4.01761 10.6974 22.0137
RightArm  -14.8909 31.7874 31.3411
RightForeArm  12.234 -2.52986 4.90533
RightHand  -3.21018 8.74374 -26.2433
LeftUpLeg  -45.6763 15.2114 -2.01828
LeftLeg  69.3975 0.907691 3.56279
LeftFoot  -8.73145 0.141007 -3.91277
LeftToes  -7.82198e-011 2.46994e-011 -7.94165e-012
49
root  65.5214 36.0897 -1.87363 11.0032 -86.4144 -3.81689
RightUpLeg  -46.6031 -22.5298 10.9909
RightLeg  38.5652 0.524576 0.161785
RightFoot  -1.8735 0.572559 -7.0576
RightToes  -1.33073e-015 0 -3.6325e-017
Spine  51.5467 -6.08369 15.8225
Spine1  4.66716 0.749164 -0.11992
HEad  -28.504 -11.0683 -1.44411
LeftShoulder1  9.66444 -19.4231 -36.0146
LeftArm  -20.6042 -45.1179 -20.0579
LeftForeArm  34.0176 -16.9801 -3.79337
LeftHand  -0.244104 0.0205437 5.32207
RightShoulder  3.87195 11.011 20.2897
RightArm  -17.3554 37.6569 29.0958
RightForeArm  12.6699 -4.58967 4.39223
RightHand  -3.1933 8.83103 -25.9592
LeftUpLeg  -49.9076 16.3874 -4.40122
LeftLeg  62.6662 0.557684 1.80858
LeftFoot  -9.39787 0.143441 -5.11422
LeftToes  -7.82198e-011 2.46994e-011 -7.94165e-012
